<?xml version="1.0" encoding="utf-8"?>
<!-- Generator: Adobe Illustrator 27.0.0, SVG Export Plug-In . SVG Version: 6.00 Build 0)  -->
<svg version="1.1" id="Layer_1" xmlns="http://www.w3.org/2000/svg" xmlns:xlink="http://www.w3.org/1999/xlink" x="0px" y="0px"
	 viewBox="0 0 266.4 266.4" style="enable-background:new 0 0 266.4 266.4;" xml:space="preserve">
<style>
		#pokeball { fill: #000000;}
		@media (prefers-color-scheme: dark) {
			#pokeball { fill: #ffffff }
		}
	</style>
<path id="pokeball" class="st0" d="M221.8,44.7c-3.7-3.7-9.8-3.7-13.5,0c-3.7,3.7-3.7,9.8,0,13.5c39.1,39.1,41.2,101.3,6.5,142.9l-44.4-44.4
	c10.8-16.9,8.8-39.7-6-54.5c-8.3-8.3-19.3-12.8-31-12.8c-8.5,0-16.5,2.4-23.5,6.8L58.3,44.8c-0.5-0.5-1.1-1-1.7-1.4
	c-3.9-2.4-9-1.7-12.1,1.6C21,68.6,8.1,99.9,8.1,133.2c0,33.4,13,64.9,36.7,88.5c1.9,1.9,4.3,2.8,6.8,2.8c2.4,0,4.9-0.9,6.8-2.8
	c3.7-3.7,3.7-9.8,0-13.5c-20-20-31.1-46.7-31.1-75c0-25.1,8.7-48.9,24.6-67.9l44.4,44.4c-4.4,7-6.8,15-6.8,23.5
	c0,11.7,4.6,22.7,12.8,31c8.5,8.5,19.8,12.8,31,12.8c8.2,0,16.3-2.3,23.5-6.8l51.5,51.5c0.7,0.7,1.6,1.3,2.5,1.8
	c1.4,0.7,2.8,1,4.3,1c2.5,0,4.9-1,6.8-2.8C270.6,172.9,270.5,93.5,221.8,44.7z M115.8,150.7c-4.7-4.7-7.2-10.9-7.2-17.5
	c0-6.6,2.6-12.8,7.2-17.5c4.7-4.7,10.9-7.2,17.5-7.2c6.6,0,12.8,2.6,17.5,7.2c9.6,9.6,9.6,25.3,0,35
	C141.1,160.3,125.4,160.3,115.8,150.7z"/>
</svg>
